<?xml version="1.0" standalone="no"?>
<!DOCTYPE svg PUBLIC "-//W3C//DTD SVG 20010904//EN"
 "http://www.w3.org/TR/2001/REC-SVG-20010904/DTD/svg10.dtd">
<svg version="1.0" xmlns="http://www.w3.org/2000/svg"
 width="100.000000pt" height="100.000000pt" viewBox="0 0 100.000000 100.000000"
 preserveAspectRatio="xMidYMid meet">

<g transform="translate(0.000000,100.000000) scale(0.100000,-0.100000)"
fill="#000000" stroke="none">
<path d="M386 944 c-171 -41 -308 -192 -338 -371 -51 -303 217 -573 521 -526
98 15 171 52 245 123 340 326 31 885 -428 774z m50 -275 c3 -6 -23 -41 -62
-80 l-68 -69 224 -2 c192 -3 225 -5 225 -18 0 -13 -33 -15 -225 -18 l-224 -2
69 -70 c55 -55 67 -72 57 -82 -10 -10 -32 7 -105 80 l-92 92 90 90 c49 49 93
90 97 90 4 0 10 -5 14 -11z"/>
</g>
</svg>
