<?xml version="1.0" standalone="no"?>
<!DOCTYPE svg PUBLIC "-//W3C//DTD SVG 20010904//EN"
 "http://www.w3.org/TR/2001/REC-SVG-20010904/DTD/svg10.dtd">
<svg version="1.0" xmlns="http://www.w3.org/2000/svg"
 width="100.000000pt" height="100.000000pt" viewBox="0 0 100.000000 100.000000"
 preserveAspectRatio="xMidYMid meet">

<g transform="translate(0.000000,100.000000) scale(0.100000,-0.100000)"
fill="#000000" stroke="none">
<path d="M233 767 c-214 -214 -233 -235 -233 -267 0 -32 19 -53 233 -267 214
-214 235 -233 267 -233 32 0 53 19 267 233 214 214 233 235 233 267 0 32 -19
53 -233 267 -214 214 -235 233 -267 233 -32 0 -53 -19 -267 -233z m504 -29
c123 -123 223 -230 223 -238 0 -19 -440 -460 -460 -460 -19 0 -460 440 -460
460 0 19 440 460 460 460 8 0 115 -100 237 -222z"/>
<path d="M470 564 l0 -155 28 3 27 3 3 153 3 152 -31 0 -30 0 0 -156z"/>
<path d="M470 315 c0 -32 2 -35 30 -35 28 0 30 3 30 35 0 32 -2 35 -30 35 -28
0 -30 -3 -30 -35z"/>
</g>
</svg>
