<?xml version="1.0" standalone="no"?>
<!DOCTYPE svg PUBLIC "-//W3C//DTD SVG 20010904//EN"
 "http://www.w3.org/TR/2001/REC-SVG-20010904/DTD/svg10.dtd">
<svg version="1.0" xmlns="http://www.w3.org/2000/svg"
 width="60.000000pt" height="60.000000pt" viewBox="0 0 60.000000 60.000000"
 preserveAspectRatio="xMidYMid meet">

<g transform="translate(0.000000,60.000000) scale(0.100000,-0.100000)"
fill="#000000" stroke="none">
<path d="M220 527 c-49 -16 -133 -102 -148 -153 -28 -94 -8 -169 63 -239 102
-103 243 -101 338 5 90 100 90 220 0 320 -65 72 -158 97 -253 67z m42 -164
l38 -37 40 39 c31 30 43 36 52 27 9 -9 3 -21 -27 -52 l-39 -40 39 -40 c30 -31
36 -43 27 -52 -9 -9 -21 -3 -52 27 l-40 39 -40 -39 c-31 -30 -43 -36 -52 -27
-9 9 -3 21 27 52 l39 40 -38 39 c-21 22 -35 44 -32 50 11 17 17 14 58 -26z"/>
</g>
</svg>
