<?xml version="1.0" standalone="no"?>
<!DOCTYPE svg PUBLIC "-//W3C//DTD SVG 20010904//EN"
 "http://www.w3.org/TR/2001/REC-SVG-20010904/DTD/svg10.dtd">
<svg version="1.0" xmlns="http://www.w3.org/2000/svg"
 width="96.000000pt" height="96.000000pt" viewBox="0 0 96.000000 96.000000"
 preserveAspectRatio="xMidYMid meet">

<g transform="translate(0.000000,96.000000) scale(0.100000,-0.100000)"
fill="#000000" stroke="none">
<path d="M400 856 c-30 -7 -74 -22 -97 -34 -34 -18 -47 -20 -65 -11 -53 24
-113 -36 -89 -88 8 -18 5 -33 -15 -73 -53 -105 -53 -234 -1 -338 18 -36 22
-53 15 -73 -19 -57 37 -114 89 -90 18 8 33 5 73 -15 105 -53 234 -53 338 -1
36 18 53 22 73 15 57 -19 114 37 90 89 -8 18 -5 33 13 70 14 27 30 76 36 111
15 75 2 159 -36 234 -20 39 -22 52 -13 69 8 15 8 28 -1 49 -15 36 -60 56 -89
41 -17 -9 -30 -7 -69 13 -44 22 -144 47 -181 45 -9 0 -41 -6 -71 -13z m226
-45 l50 -22 1 -49 c1 -49 -15 -78 -36 -65 -6 3 -22 -2 -37 -12 -16 -10 -41
-16 -63 -14 -26 1 -48 -5 -75 -24 -21 -14 -45 -24 -52 -21 -38 14 -13 -20 80
-113 63 -62 106 -99 110 -92 4 6 5 15 1 20 -3 5 6 27 21 48 21 30 25 46 21 80
-3 33 0 46 14 59 11 10 17 25 14 34 -8 25 14 37 67 37 47 0 47 -1 70 -51 19
-42 23 -69 23 -146 0 -82 -4 -102 -25 -145 -23 -46 -28 -50 -63 -51 -48 -1
-70 -23 -71 -71 -1 -35 -5 -40 -51 -63 -43 -21 -63 -25 -145 -25 -77 0 -104 4
-146 23 -50 23 -51 23 -51 70 0 53 20 86 48 77 11 -4 26 2 38 14 15 15 28 19
55 14 26 -4 45 0 71 16 20 12 41 19 46 16 5 -4 14 -3 20 1 7 4 -30 47 -92 110
-92 92 -131 118 -115 78 3 -8 -4 -30 -15 -49 -12 -20 -19 -48 -18 -67 2 -19
-5 -44 -15 -60 -10 -15 -15 -32 -11 -38 15 -24 -24 -48 -75 -47 l-49 1 -23 50
c-33 74 -33 219 1 294 21 46 27 53 47 48 51 -13 101 38 88 90 -3 13 -5 24 -3
24 2 0 31 11 64 25 52 22 72 25 145 22 59 -2 100 -10 136 -26z m-378 -33 c15
-15 15 -51 0 -66 -28 -28 -78 -7 -78 33 0 27 18 45 45 45 12 0 26 -5 33 -12z
m530 0 c7 -7 12 -21 12 -33 0 -12 -5 -26 -12 -33 -7 -7 -21 -12 -33 -12 -40 0
-61 50 -33 78 7 7 21 12 33 12 12 0 26 -5 33 -12z m-138 -162 c-13 -13 -35 7
-25 24 5 8 11 8 21 -1 10 -8 12 -15 4 -23z m-42 -23 c22 -24 26 -40 22 -77 -2
-21 -29 -66 -39 -66 -12 0 -126 118 -126 131 0 19 66 49 94 43 14 -3 36 -17
49 -31z m-148 -148 c62 -62 63 -65 45 -80 -32 -24 -92 -19 -120 10 -24 23 -29
40 -26 75 2 20 23 60 30 60 4 0 36 -29 71 -65z m-95 -95 c11 -17 -5 -32 -21
-19 -7 6 -11 15 -8 20 7 12 21 11 29 -1z m-107 -102 c15 -15 15 -51 0 -66 -15
-15 -51 -15 -66 0 -15 15 -15 51 0 66 7 7 21 12 33 12 12 0 26 -5 33 -12z
m530 0 c28 -28 7 -78 -33 -78 -27 0 -45 18 -45 45 0 27 18 45 45 45 12 0 26
-5 33 -12z"/>
</g>
</svg>
