<?xml version="1.0" encoding="UTF-8"?>
<svg xmlns="http://www.w3.org/2000/svg" xmlns:xlink="http://www.w3.org/1999/xlink" width="90px" height="67px" viewBox="0 0 90 67" version="1.1">
<g id="surface1">
<path style="fill:none;stroke-width:0.786291;stroke-linecap:butt;stroke-linejoin:miter;stroke:rgb(17.647059%,17.647059%,17.647059%);stroke-opacity:1;stroke-miterlimit:10;" d="M 14.497136 25.278689 C 14.497136 20.595153 18.33507 16.756824 23.019836 16.756824 L 155.817019 16.756824 C 160.501785 16.756824 164.347488 20.595153 164.347488 25.278689 " transform="matrix(0.502793,0,0,0.503759,0,0)"/>
<path style=" stroke:none;fill-rule:nonzero;fill:rgb(17.647059%,17.647059%,17.647059%);fill-opacity:1;" d="M 76.554688 38.484375 C 76.117188 38.484375 75.683594 38.484375 75.25 38.484375 C 75.25 35.890625 75.25 33.308594 75.25 30.714844 C 75.160156 30.691406 75.078125 30.667969 74.980469 30.65625 C 74.738281 30.621094 74.503906 30.621094 74.253906 30.65625 C 74.195312 30.667969 74.183594 30.667969 74.183594 30.726562 C 74.164062 30.890625 74.152344 31.042969 74.125 31.207031 C 74.09375 31.492188 74.054688 31.785156 74.011719 32.066406 C 73.972656 32.296875 73.953125 32.535156 73.914062 32.769531 C 73.871094 33.097656 73.832031 33.425781 73.789062 33.757812 C 73.753906 34.039062 73.71875 34.320312 73.683594 34.613281 C 73.648438 34.894531 73.613281 35.175781 73.578125 35.457031 C 73.550781 35.609375 73.542969 35.761719 73.519531 35.914062 C 73.460938 36.242188 73.339844 36.546875 73.144531 36.816406 C 72.945312 37.089844 72.675781 37.261719 72.355469 37.371094 L 72.347656 37.371094 C 72.277344 37.378906 72.253906 37.429688 72.253906 37.488281 C 72.230469 37.6875 72.207031 37.898438 72.171875 38.097656 C 72.113281 38.414062 71.855469 38.601562 71.511719 38.613281 C 71.375 38.613281 71.234375 38.589844 71.117188 38.507812 C 70.941406 38.402344 70.847656 38.238281 70.8125 38.039062 C 70.777344 37.851562 70.753906 37.671875 70.742188 37.488281 C 70.730469 37.417969 70.707031 37.378906 70.636719 37.359375 C 70.425781 37.289062 70.226562 37.179688 70.0625 37.039062 C 69.851562 36.867188 69.699219 36.628906 69.605469 36.375 C 69.523438 36.160156 69.476562 35.9375 69.441406 35.703125 C 69.40625 35.457031 69.371094 35.195312 69.347656 34.953125 C 69.324219 34.742188 69.300781 34.542969 69.265625 34.332031 C 69.230469 34.046875 69.195312 33.765625 69.160156 33.472656 C 69.125 33.238281 69.101562 32.992188 69.066406 32.746094 C 69.03125 32.464844 68.984375 32.167969 68.949219 31.886719 C 68.914062 31.652344 68.890625 31.40625 68.855469 31.160156 C 68.832031 30.996094 68.820312 30.84375 68.796875 30.679688 C 68.796875 30.644531 68.785156 30.621094 68.738281 30.609375 C 68.421875 30.574219 68.109375 30.574219 67.789062 30.65625 C 67.777344 30.65625 67.765625 30.667969 67.742188 30.667969 C 67.742188 30.667969 67.730469 30.667969 67.730469 30.679688 C 67.730469 33.261719 67.730469 35.84375 67.730469 38.425781 C 67.671875 38.4375 66.511719 38.449219 66.429688 38.425781 C 66.429688 38.402344 66.429688 38.378906 66.429688 38.355469 C 66.429688 36.253906 66.429688 34.164062 66.429688 32.066406 C 66.429688 31.664062 66.550781 31.300781 66.792969 30.984375 C 66.957031 30.773438 67.167969 30.632812 67.414062 30.527344 C 67.4375 30.515625 67.460938 30.503906 67.496094 30.492188 C 67.496094 30.363281 67.496094 30.246094 67.496094 30.128906 C 67.496094 30 67.507812 29.859375 67.566406 29.742188 C 67.671875 29.496094 67.847656 29.355469 68.117188 29.328125 C 68.328125 29.308594 68.515625 29.339844 68.679688 29.480469 C 68.820312 29.597656 68.902344 29.765625 68.9375 29.941406 C 68.960938 30.058594 68.972656 30.1875 68.996094 30.304688 C 68.996094 30.339844 69.007812 30.386719 69.007812 30.421875 C 69.101562 30.457031 69.195312 30.492188 69.277344 30.527344 C 69.546875 30.65625 69.769531 30.84375 69.945312 31.089844 C 70.109375 31.335938 70.226562 31.605469 70.285156 31.902344 C 70.332031 32.125 70.355469 32.347656 70.390625 32.558594 C 70.425781 32.851562 70.472656 33.15625 70.507812 33.449219 C 70.53125 33.660156 70.554688 33.859375 70.578125 34.070312 C 70.613281 34.378906 70.660156 34.683594 70.695312 34.976562 C 70.730469 35.234375 70.753906 35.480469 70.789062 35.738281 C 70.824219 36.03125 70.859375 36.324219 70.894531 36.617188 C 70.917969 36.785156 70.929688 36.949219 70.953125 37.109375 C 70.953125 37.121094 70.953125 37.136719 70.964844 37.160156 C 71.328125 37.230469 71.691406 37.230469 72.066406 37.160156 C 72.078125 37.078125 72.089844 37.007812 72.101562 36.925781 C 72.136719 36.617188 72.183594 36.3125 72.214844 35.996094 C 72.253906 35.738281 72.277344 35.480469 72.3125 35.234375 C 72.355469 34.902344 72.394531 34.5625 72.441406 34.234375 C 72.476562 33.976562 72.496094 33.730469 72.535156 33.472656 C 72.582031 33.144531 72.617188 32.804688 72.664062 32.476562 C 72.6875 32.296875 72.707031 32.125 72.746094 31.945312 C 72.804688 31.644531 72.910156 31.359375 73.070312 31.101562 C 73.28125 30.785156 73.578125 30.5625 73.941406 30.445312 C 73.964844 30.433594 74 30.421875 74.035156 30.410156 C 74.042969 30.304688 74.066406 30.199219 74.082031 30.09375 C 74.105469 29.953125 74.125 29.8125 74.195312 29.667969 C 74.316406 29.449219 74.488281 29.328125 74.738281 29.308594 C 74.898438 29.285156 75.066406 29.308594 75.21875 29.398438 C 75.390625 29.507812 75.488281 29.667969 75.519531 29.859375 C 75.53125 29.941406 75.542969 30.03125 75.542969 30.117188 C 75.542969 30.234375 75.542969 30.351562 75.542969 30.480469 C 75.570312 30.492188 75.589844 30.503906 75.625 30.515625 C 76.074219 30.703125 76.375 31.03125 76.515625 31.5 C 76.585938 31.714844 76.609375 31.933594 76.609375 32.15625 C 76.609375 34.210938 76.609375 36.265625 76.609375 38.332031 C 76.554688 38.414062 76.554688 38.4375 76.554688 38.484375 Z M 67.460938 30.808594 C 67.4375 30.820312 67.425781 30.820312 67.414062 30.820312 C 67.097656 30.972656 66.875 31.21875 66.746094 31.5625 C 66.664062 31.792969 66.632812 32.042969 66.632812 32.285156 C 66.632812 33.789062 66.632812 35.292969 66.632812 36.808594 C 66.632812 37.261719 66.632812 37.710938 66.632812 38.167969 C 66.632812 38.191406 66.632812 38.226562 66.632812 38.25 C 66.914062 38.25 67.179688 38.25 67.460938 38.25 C 67.460938 35.761719 67.460938 33.285156 67.460938 30.808594 Z M 76.316406 38.238281 C 76.316406 38.203125 76.316406 38.167969 76.316406 38.132812 C 76.316406 36.40625 76.316406 34.671875 76.316406 32.945312 C 76.316406 32.675781 76.304688 32.40625 76.304688 32.125 C 76.304688 31.972656 76.285156 31.816406 76.246094 31.675781 C 76.152344 31.335938 75.964844 31.066406 75.660156 30.878906 C 75.601562 30.84375 75.554688 30.820312 75.488281 30.785156 C 75.488281 33.273438 75.488281 35.75 75.488281 38.226562 C 75.769531 38.238281 76.035156 38.238281 76.316406 38.238281 Z M 69.03125 30.738281 C 69.03125 30.773438 69.03125 30.796875 69.03125 30.808594 C 69.066406 31.042969 69.089844 31.289062 69.125 31.523438 C 69.160156 31.84375 69.207031 32.15625 69.253906 32.476562 C 69.289062 32.71875 69.3125 32.96875 69.347656 33.214844 C 69.382812 33.496094 69.417969 33.777344 69.464844 34.058594 C 69.5 34.308594 69.523438 34.542969 69.558594 34.789062 C 69.605469 35.105469 69.640625 35.421875 69.6875 35.738281 C 69.710938 35.9375 69.757812 36.125 69.828125 36.3125 C 69.96875 36.65625 70.203125 36.910156 70.53125 37.078125 C 70.578125 37.097656 70.625 37.109375 70.683594 37.136719 C 70.683594 37.109375 70.683594 37.097656 70.683594 37.089844 C 70.660156 36.898438 70.636719 36.710938 70.613281 36.535156 C 70.589844 36.324219 70.566406 36.125 70.542969 35.914062 C 70.507812 35.65625 70.472656 35.410156 70.449219 35.152344 C 70.425781 34.941406 70.390625 34.714844 70.367188 34.503906 C 70.332031 34.25 70.296875 34 70.273438 33.742188 C 70.25 33.53125 70.226562 33.308594 70.191406 33.097656 C 70.15625 32.851562 70.132812 32.59375 70.097656 32.347656 C 70.0625 32.097656 70.015625 31.855469 69.921875 31.632812 C 69.804688 31.335938 69.640625 31.089844 69.371094 30.914062 C 69.265625 30.84375 69.148438 30.785156 69.03125 30.738281 Z M 72.285156 37.136719 C 72.300781 37.136719 72.3125 37.136719 72.3125 37.136719 C 72.535156 37.050781 72.722656 36.925781 72.886719 36.746094 C 73.109375 36.5 73.214844 36.195312 73.269531 35.867188 C 73.296875 35.703125 73.320312 35.539062 73.339844 35.375 C 73.378906 35.125 73.410156 34.882812 73.4375 34.632812 C 73.472656 34.402344 73.492188 34.152344 73.53125 33.917969 C 73.566406 33.636719 73.601562 33.34375 73.648438 33.0625 C 73.683594 32.828125 73.703125 32.578125 73.742188 32.335938 C 73.773438 32.085938 73.8125 31.832031 73.832031 31.582031 C 73.859375 31.371094 73.894531 31.171875 73.914062 30.960938 C 73.929688 30.890625 73.929688 30.820312 73.941406 30.738281 C 73.914062 30.738281 73.902344 30.75 73.894531 30.75 C 73.683594 30.832031 73.507812 30.960938 73.351562 31.125 C 73.179688 31.324219 73.070312 31.5625 72.988281 31.816406 C 72.917969 32.054688 72.898438 32.285156 72.863281 32.523438 C 72.816406 32.875 72.777344 33.226562 72.734375 33.578125 C 72.6875 33.96875 72.636719 34.363281 72.59375 34.753906 C 72.546875 35.09375 72.511719 35.421875 72.476562 35.761719 C 72.417969 36.207031 72.355469 36.640625 72.3125 37.089844 C 72.285156 37.109375 72.285156 37.121094 72.285156 37.136719 Z M 70.964844 37.476562 C 70.964844 37.511719 70.964844 37.558594 70.976562 37.59375 C 70.988281 37.722656 71.011719 37.863281 71.023438 37.992188 C 71.058594 38.296875 71.292969 38.449219 71.574219 38.390625 C 71.773438 38.355469 71.902344 38.214844 71.925781 38.003906 C 71.933594 37.945312 71.933594 37.886719 71.949219 37.828125 C 71.960938 37.710938 71.972656 37.59375 71.996094 37.476562 C 71.65625 37.519531 71.316406 37.519531 70.964844 37.476562 Z M 68.738281 30.421875 C 68.714844 30.269531 68.691406 30.117188 68.65625 29.976562 C 68.632812 29.882812 68.585938 29.789062 68.515625 29.730469 C 68.375 29.597656 68.199219 29.578125 68.023438 29.636719 C 67.847656 29.691406 67.765625 29.820312 67.730469 30 C 67.707031 30.152344 67.71875 30.304688 67.71875 30.457031 C 67.71875 30.457031 67.71875 30.46875 67.730469 30.46875 C 68.058594 30.386719 68.390625 30.386719 68.738281 30.421875 Z M 75.238281 30.46875 C 75.238281 30.339844 75.238281 30.210938 75.238281 30.09375 C 75.238281 30.03125 75.230469 29.988281 75.21875 29.929688 C 75.191406 29.820312 75.136719 29.742188 75.039062 29.679688 C 74.785156 29.507812 74.433594 29.621094 74.316406 29.917969 C 74.28125 30.011719 74.253906 30.117188 74.246094 30.210938 C 74.234375 30.28125 74.234375 30.339844 74.222656 30.410156 C 74.574219 30.386719 74.898438 30.386719 75.238281 30.46875 Z M 75.238281 30.46875 "/>
<path style="fill:none;stroke-width:0.786291;stroke-linecap:butt;stroke-linejoin:miter;stroke:rgb(17.647059%,17.647059%,17.647059%);stroke-opacity:1;stroke-miterlimit:10;" d="M 142.073485 82.264298 C 150.339805 82.264298 157.052305 75.56467 157.052305 67.29094 C 157.052305 59.017209 150.339805 52.302073 142.073485 52.302073 C 133.799397 52.302073 127.086896 59.017209 127.086896 67.29094 C 127.086896 75.56467 133.799397 82.264298 142.073485 82.264298 Z M 142.073485 82.264298 " transform="matrix(0.502793,0,0,0.503759,0,0)"/>
<path style="fill:none;stroke-width:0.786291;stroke-linecap:butt;stroke-linejoin:miter;stroke:rgb(17.647059%,17.647059%,17.647059%);stroke-opacity:1;stroke-miterlimit:10;" d="M 14.497136 25.278689 L 14.497136 112.342836 C 14.497136 114.645834 16.377257 116.514596 18.661372 116.514596 L 162.389675 116.514596 C 164.697097 116.514596 166.561681 114.630325 166.561681 112.342836 L 166.561681 29.473711 C 166.561681 27.162959 164.666021 25.301952 162.389675 25.301952 L 29.561416 25.301952 C 24.884419 25.301952 21.038716 21.672986 21.038716 16.981696 " transform="matrix(0.502793,0,0,0.503759,0,0)"/>
<path style="fill:none;stroke-width:0.786291;stroke-linecap:butt;stroke-linejoin:miter;stroke:rgb(17.647059%,17.647059%,17.647059%);stroke-opacity:1;stroke-miterlimit:10;" d="M 23.905513 32.567636 L 25.48264 32.567636 " transform="matrix(0.502793,0,0,0.503759,0,0)"/>
<path style="fill:none;stroke-width:0.786291;stroke-linecap:butt;stroke-linejoin:miter;stroke:rgb(17.647059%,17.647059%,17.647059%);stroke-opacity:1;stroke-dasharray:1.63,1.63;stroke-miterlimit:10;" d="M 28.75343 32.567636 L 37.742276 32.567636 " transform="matrix(0.502793,0,0,0.503759,0,0)"/>
<path style="fill:none;stroke-width:0.786291;stroke-linecap:butt;stroke-linejoin:miter;stroke:rgb(17.647059%,17.647059%,17.647059%);stroke-opacity:1;stroke-dasharray:3.27,3.27;stroke-miterlimit:10;" d="M 38.558031 32.567636 L 152.041238 32.567636 " transform="matrix(0.502793,0,0,0.503759,0,0)"/>
<path style="fill:none;stroke-width:0.786291;stroke-linecap:butt;stroke-linejoin:miter;stroke:rgb(17.647059%,17.647059%,17.647059%);stroke-opacity:1;stroke-miterlimit:10;" d="M 152.856993 32.567636 L 154.441889 32.567636 " transform="matrix(0.502793,0,0,0.503759,0,0)"/>
<path style="fill:none;stroke-width:0.786291;stroke-linecap:butt;stroke-linejoin:miter;stroke:rgb(17.647059%,17.647059%,17.647059%);stroke-opacity:1;stroke-miterlimit:10;" d="M 23.905513 109.287682 L 25.48264 109.287682 " transform="matrix(0.502793,0,0,0.503759,0,0)"/>
<path style="fill:none;stroke-width:0.786291;stroke-linecap:butt;stroke-linejoin:miter;stroke:rgb(17.647059%,17.647059%,17.647059%);stroke-opacity:1;stroke-dasharray:1.63,1.63;stroke-miterlimit:10;" d="M 28.75343 109.287682 L 37.742276 109.287682 " transform="matrix(0.502793,0,0,0.503759,0,0)"/>
<path style="fill:none;stroke-width:0.786291;stroke-linecap:butt;stroke-linejoin:miter;stroke:rgb(17.647059%,17.647059%,17.647059%);stroke-opacity:1;stroke-dasharray:3.27,3.27;stroke-miterlimit:10;" d="M 38.558031 109.287682 L 152.041238 109.287682 " transform="matrix(0.502793,0,0,0.503759,0,0)"/>
<path style="fill:none;stroke-width:0.786291;stroke-linecap:butt;stroke-linejoin:miter;stroke:rgb(17.647059%,17.647059%,17.647059%);stroke-opacity:1;stroke-miterlimit:10;" d="M 152.856993 109.287682 L 154.441889 109.287682 " transform="matrix(0.502793,0,0,0.503759,0,0)"/>
<path style="fill:none;stroke-width:0.786291;stroke-linecap:butt;stroke-linejoin:miter;stroke:rgb(17.647059%,17.647059%,17.647059%);stroke-opacity:1;stroke-miterlimit:10;" d="M 152.763764 56.776246 L 166.810292 56.776246 " transform="matrix(0.502793,0,0,0.503759,0,0)"/>
<path style="fill:none;stroke-width:0.786291;stroke-linecap:butt;stroke-linejoin:miter;stroke:rgb(17.647059%,17.647059%,17.647059%);stroke-opacity:1;stroke-miterlimit:10;" d="M 152.763764 78.077031 L 166.810292 78.077031 " transform="matrix(0.502793,0,0,0.503759,0,0)"/>
</g>
</svg>
